<svg version="1.2" xmlns="http://www.w3.org/2000/svg" viewBox="0 0 677 677" width="677" height="677">
	<title>Logo-svg</title>
	<defs>
		<clipPath clipPathUnits="userSpaceOnUse" id="cp1">
			<path d="m-237-283h1201.78v1244.44h-1201.78z"/>
		</clipPath>
	</defs>
	<style>
		.s0 { fill: #000000 } 
		.s1 { fill: none;stroke: #ffffff;stroke-miterlimit:10;stroke-width: 33.3 } 
		.s2 { fill: none;stroke: #ffffff;stroke-miterlimit:10;stroke-width: 13.3 } 
		.s3 { fill: #ffffff } 
	</style>
	<g id="g8">
		<g id="g10">
			<g id="Clip-Path: g12" clip-path="url(#cp1)">
				<g id="g12">
					<g id="g18">
						<path id="path20" class="s0" d="m620.7 341.5c0 156.5-126.8 283.4-283.3 283.4-156.5 0-283.3-126.9-283.3-283.4 0-156.4 126.8-283.3 283.3-283.3 156.5 0 283.3 126.9 283.3 283.3z"/>
					</g>
					<g id="g22">
						<path id="path24" fill-rule="evenodd" class="s1" d="m620.7 341.5c0 156.5-126.8 283.4-283.3 283.4-156.5 0-283.3-126.9-283.3-283.4 0-156.4 126.8-283.3 283.3-283.3 156.5 0 283.3 126.9 283.3 283.3z"/>
					</g>
					<g id="g26">
						<path id="path28" fill-rule="evenodd" class="s2" d="m587.4 341.5c0 138.1-111.9 250-250 250-138.1 0-250-111.9-250-250 0-138 111.9-250 250-250 138.1 0 250 112 250 250z"/>
					</g>
					<g id="g30">
						<path id="path32" fill-rule="evenodd" class="s3" d="m221.7 260.2c1.5 0 2.8 0 4 0 5.2 0.4 9.6 4.1 10.9 9.1 1.3 5.1 0.2 14.9-2.2 19.5 8.3 12.5 23.2 20 26.8 35.2 8.3 0.7 16.3 0.7 24 2.3 5.8 1.1 11.3 4.2 16.9 6.3 1.4 0.5 3.2 0.8 4.5 0.4 6-2.1 12-4.5 18.2-6.7 0-6.2 0.1-11.7-0.1-17.3 0-1.1-0.9-2.3-1.6-3.2-4-5-5.7-10.6-3.7-16.7 2.4-7 5.4-13.8 8.4-20.6 0.5-1 2.5-1.4 3.8-2.1 0.4 1.3 1.1 2.7 1.1 4 0.1 4.8-0.2 9.6 0.1 14.4 0.1 1.2 2 2.3 3.1 3.5 0.9-1.3 2-2.5 2.6-3.9 0.4-1.3 0.2-2.8 0.2-4.2 0.4-12.7 6.1-21.5 18.6-25.5 5.6-1.8 10.5-4.9 13.9-10 1.5-2.4 4.4-2.1 5.2 0.6 0.9 3.4 1.5 7 1.3 10.4-0.1 1.6-2.1 3.8-3.8 4.5-10.1 4.2-15.2 12.1-17 22.5-0.3 2.1-0.6 4.3 2.2 4.8 2.7 0.5 3.3-1.5 3.6-3.8 1.8-10.8 8.6-18.7 17.6-19.1 4.1-0.1 8.6 1.4 12.6 2.9 7.2 2.9 9.7 2.5 14.9-3.3 0.8-0.9 2.4-1.7 3.5-1.6 0.8 0.1 2.1 1.7 2.1 2.6 0.1 4.3 0.1 8.6-0.5 12.7-0.5 3-3 3.7-5.9 3.2-10.4-1.7-18.7 2.4-25.7 9.9-1.4 1.6-3 3.5-0.5 5.5 2.3 1.7 3.6-0.1 5-1.7 9.2-10.5 24.4-11 34.3-1.2 2.4 2.5 4.6 3 7.6 1.1 2.9-1.8 4.8-0.6 4.8 3-0.1 8.1-4.4 13.7-11 17.9-1.4 0.9-2.8 1.6-4.7 2.5 1.4 1.6 2.5 3.1 3.8 4.4 2.2 2.3 2.2 4.6 0 6.6-3.6 3.2-7.3 6.1-11.7 9.7 0.2 2.4 2.2 5.1 4.6 7.5 3.2 3.1 3 4.7-0.8 6.8-5.9 3.2-12.7 1.8-17.2-4-2-2.6-3.1-6-4.9-8.9-0.6-1.1-2-1.9-3-2.8-0.9 1.1-2.5 2.2-2.7 3.5-0.9 6.1 1.3 11.3 6.3 14.9 3.2 2.3 7.1 3.7 10.6 5.6 1.2 0.6 3.1 1.5 3.1 2.2-0.1 1.3-1.1 2.9-2.1 3.7-4.4 3.3-9.6 3.7-14.8 3.4-3-0.1-6-0.7-9.3-1.1q-0.3 2.5-0.6 4.9c-0.5 4-1.3 4.7-5.4 4.1-9.4-1.2-16.2-7.8-17.8-17.4-0.3-1.9-0.5-4-3.2-3.9-2.9 0.1-2.8 2.4-2.7 4.5 0 6 2 11.4 5.9 16 0.6 0.7 1.5 1.2 1.7 2 0.5 1.9 1.7 4.5 0.9 5.7-0.9 1.3-4.2 2.5-5.5 1.8-5.2-2.7-7.4 0.4-9.9 3.9-2.8 3.9-5.8 7.6-8.7 11.5-1.3 1.8-3 2.9-4.7 1.2-0.8-0.7-0.7-3.4 0-4.5 4.1-5.8 8.5-11.3 12.9-17.1-5.9-5.4-8.8-12-8.4-19.9 0.1-2.6 1.2-5.2 1.4-7.8 0.1-1.3-0.7-2.8-1.2-4.1-1.3 0.6-3.5 1-4 2.1-3.8 8-3.3 16.1 0.1 24.2 0.3 0.9 1 1.8 1.2 2.8 0.1 0.9 0.1 2.3-0.5 2.7-0.7 0.5-2.5 0.6-2.9 0.1-3.2-3.5-6.2-7.1-9.2-10.8-0.5-0.7-0.7-1.6-1.3-3-2.8 3.4-5.7 6.3-7.9 9.7-5.3 8.3-10.3 16.8-15.3 25.3-2.2 3.7-1.6 7.4 0.9 11.5 0.9-1.3 1.7-2.4 2.4-3.5 6.1-8.2 12.2-16.4 18.3-24.6 1.3-1.7 2.8-3.4 5-1.4 2.1 2 0.6 3.6-0.7 5.3-6.8 9.3-13.5 18.6-20.3 27.9-0.5 0.8-1 1.7-1.6 2.5-6.1 10-6 12.8 1.3 22.5 0.8-1.3 1.5-2.4 2.2-3.5 5.1-7.9 10.2-15.9 15.4-23.9 1.2-1.7 2.6-4 5.1-2.1 2.3 1.8 0.7 3.8-0.5 5.6-6.2 10-12.3 20-18.7 29.9-2.7 4.4-2.3 8.9-1.4 13.5 0.2 1.3 1.6 2.4 2.4 3.5 1.1-0.8 2.6-1.5 3.3-2.6 8.9-14.2 19.5-27 30.9-39.3 29.3-31.3 64-54.6 103.8-70.6 11-4.5 21.6-10 28.9-20 5.6-7.7 10.5-15.8 12.4-25.3 0.4-2.5 0.4-5.1 0.4-7.6-0.4-22.7 2.5-45.2 7.3-67.4 4.1-18.6 15.8-32.7 30.7-44.3 1.1-0.9 2.4-1.7 3.4-3.3-1 0.2-2 0.3-2.9 0.6-16 4.6-28.2 14.3-37 28.4-9.1 14.8-13.7 31.2-16.5 48.1-2.3 13.4-4.5 26.7-11.8 38.5-2.2 3.4-4.5 6.8-7 9.8-0.7 0.9-2.8 0.6-4.2 0.8-0.1-1.3-1-3.2-0.4-3.9 11.8-13.5 15-30 17.8-46.9 0.8-5.1 2-10.1 3.1-15.7-8.3 8.8-17.2 16.4-20.5 28.2-0.8 2.9-2.1 5.7-3.6 8.3-0.6 1-2.5 1.3-3.8 1.9-0.5-1.4-1.7-3-1.3-4.1 4.3-11.6 8.9-23 18.5-31.8 8.6-7.9 13.2-18.5 20.2-28.1 14.3-19.7 19-27.4 39.4-36.3 3.5-1.5 6.3-2.6 9.7-0.8 1.8 0.9 2.1 1.3 3.3 2.1-0.9 1.3-1.4 2.6-2.2 3.8-5.1 7.5-3.6 6.2-11.1 14.6-4.7 5.2-8.6 11.2-12.6 17-5 7.3-4.7 15.2-2.1 23.3 2.5 7.4 6.1 14.3 11.5 19.9 4.1 4.3 6.2 9.4 5.9 15-0.3 6.7-1.5 13.3-2.6 19.8-0.4 2.5-1.7 4.2-4.5 4.9-1.9 0.5-3.8 2.2-5.1 3.8-7.1 9-10.9 19.3-10.9 30.8 0 5.9 1.7 6.7 6.9 4.2 6.3-2.9 10.8-7.8 14.9-13.2 1-1.3 2.8-2 4.3-3 0.7 1.7 2 3.4 2 5.1-0.6 39.7-16.2 72.5-46 98.5q-1.7 1.5-3.4 3c10.8 20.4 8.5 42 6.6 63.5-0.3 2.7 0.1 5.6 1 8 3.4 9 4.9 18.1 2.2 27.5-0.8 3-2.5 5.8-4.3 8.3-2 2.8-5 4-8.4 2.7-3.3-1.3-4.6-3.9-4.7-7.5 0-2.8-0.6-5.6-0.9-8.4q-0.5 0-1.1 0c-0.2 0.8-0.6 1.5-0.8 2.3-0.9 3.4-3.2 5.1-6.6 5.1-3.4 0-5.4-2.1-6.3-5.1-1.6-5.4-0.3-10.6 1.7-15.6 1.1-2.8 2.3-5.5 3.8-8.2 1.4-2.5 1.1-4.4-0.7-6.8-6.8-9.1-12.6-19.1-12.5-30.7 0-6.7-1.5-11.8-6.6-16-1.2-1-1.9-2.6-3-4.3-13.4 3.1-25.2 9.3-34 20.2-1.9 2.3-1.1 6.9-1.6 10.3 10.1 3.1 13 9.1 9 18.5-6 14.1-16.2 24.6-28.7 33-16.9 11.5-35.8 17.3-55.9 19.6-14.2 1.7-23.5-7.1-23.2-21.6 0.1-4.4 0.3-8.5-2.3-12.9-3.7-6-0.6-12 4.2-16.2 3.6-3.1 4.6-6.4 4.3-10.8-0.2-4.9 0-9.9 0-14.9-6.2-1-8.2-5.3-8.9-10.6-0.3-1.7-0.5-3.5-0.3-5.2 0.9-6.3-0.8-11.6-4.8-16.5-4.1-5.1-2.3-10.7-0.3-16.2 0.6-1.7 0.8-4.1 0-5.6-3.4-6.8-3.9-13.4-0.1-20.2 0.6-1.2 0.5-3.2 0-4.6-2.4-6.4-6.7-11.3-12.5-14.8-11.9-7-23.7-14.1-33.4-24.1-0.6-0.5-1.5-0.9-2.3-1.1-8.7-2.1-13.2-8.1-15.7-16.3-1.9-6.2-4.6-12.2-7.2-19-0.5 1.3-0.7 1.8-0.8 2.2-1.2 4.7-4.1 7.1-8.2 6.7-4.1-0.4-6.7-3.2-7-8-0.2-4.2 0-8.3 0-12.7-1.8-0.2-2.9-0.3-4-0.4-6-0.5-10.4-6.2-9.7-12.2 0.2-2.3-0.2-4.6 0-6.9 0.3-6.3 0.2-12.5 0.1-18.8-0.1-5 4.5-8 10.9-8.7m159.9 68.6c4-3.3 6.7-7.1 7.5-12.1 1-6.3-2.1-10.9-6.6-14.8-4-3.5-7.8-1.7-11.4 0.6-3.1 1.9-5.7 1.6-8.4-0.4-4.8-3.7-10.6 0.6-9.8 6.3 0.1 1 1.4 2.5 2.4 2.8 8.1 1.9 10.6 6.5 8.1 14.2-0.5 1.4 0.1 3.2 0.3 4.7 1.7-0.3 4-0.1 5.2-1.2 5.2-4.6 7.1-4.8 12.7-0.1zm-151.7-62.5c-2.4 0-4.9-0.3-7.2 0.1-2 0.4-4.8 1-5.7 2.4-0.8 1.5-0.1 4.4 0.8 6.2 1.2 2.1 0.7 3.4-0.1 5.5-0.9 2.3-0.7 5-0.8 7.5-0.1 2 0.5 4.2 0 6.1-0.8 3.8 0.3 6.5 3.8 6.8 6.2 0.4 12.4 0.5 18.5 0.5 2.7-0.1 3.2-2.2 3.2-4.4-0.1-2.2-1-3.4-3.5-3.2-3 0.2-6.1 0-9.1 0.1-2.1 0-4-0.5-4-3 0.1-2.6 2.1-2.9 4.1-2.9 2.9-0.1 5.8-0.2 8.7 0 2.5 0.2 3.8-0.8 3.8-3.4-0.1-2.6-0.8-4.3-4-4.1-2.9 0.2-5.8 0-8.7 0-2.1 0-4.2-0.6-3.7-3 0.2-1.1 2.3-2.4 3.6-2.6 2.9-0.4 5.8-0.4 8.7-0.1 3.5 0.3 4-1.8 4.1-4.4q0.1-4.2-4.2-4.1c-2.8 0.1-5.5 0-8.3 0zm104.8 72.7q-0.5-0.6-1-1.2c-0.9 0.3-1.9 0.4-2.7 0.9-3.7 2.2-6.8 1.4-10.2-0.9-5.9-4-12.7-6.2-19.8-6.7-6.1-0.4-12.3-0.1-18.5 0.1-3 0.2-4.3-0.5-4.7-3.7-0.4-3-1.2-6.2-2.9-8.5-4.7-6.2-10-11.9-15-17.6-4.6 2.3-7.1 5.2-8.3 10-2.5 10.7-0.6 21 4.1 30.6 1.4 2.7 5.2 4.4 8 6.3 2.2 1.5 4.9 2.4 7.1 4 7.7 5.7 14.9 12.1 22.9 17.2 8.7 5.5 17.6 10.4 22 19.9 6.5-8.4 12.7-16.8 19.4-24.8 2.6-3 3.4-5.9 3.1-9.1-4.2-0.8-8.2-1.4-12-2.4-1.2-0.3-2.7-1.9-2.8-3-0.1-1 1.4-2.3 2.4-3.3 2.9-2.6 5.9-5.2 8.9-7.8zm35.7 86.7q0.4 1 0.7 2c7.4 0 14.9 0.2 22.3-0.1 6.1-0.3 11-3.5 14.7-8.3 2.2-2.7 3.4-6.1 5.5-9 0.8-1.2 2.5-1.7 3.9-2.5 0.5 1.5 1.7 3.2 1.3 4.4-3.6 12.7-15.8 21.6-28.9 21.4-7.7-0.2-15.4-0.7-23.1-0.8-1.5 0-3.6 0.7-4.6 1.8-9.8 11.2-19.4 22.6-29 34-0.9 1-1.5 2.6-1.6 4-0.1 6.2 0.2 12.4 0.1 18.6 0 2.4 0.6 3.5 3.1 4.2 10.4 3.1 21.1 5.1 32 5.2 15.5 0.1 29.8-3.3 41.8-13.8 3-2.6 4.8-5.4 4.5-9.7-0.4-4.9 0.2-9.9 0.3-14.8 0-0.9-0.2-1.8-0.2-2.7-2.7 1.4-5 2.9-7.5 3.7-1.1 0.3-2.6-0.7-3.9-1 0.5-1.4 0.6-3.6 1.6-4 14.7-7.4 21.8-20.2 25.6-35.3 0.4-1.7-0.3-3.8-0.9-5.6-1.4-4.3-3.2-8.4-4.4-12.8-0.2-0.8 1.2-2.9 2.2-3.1 0.9-0.2 2.3 1.2 3.3 2.1 0.5 0.6 0.4 1.7 0.6 2.6 1.7 8.4 6.7 13.9 14.6 16.9 2.3 0.9 4.5 1.8 6.8 2.3 3.6 0.7 4.9 2.4 4.9 6.2 0 9.4 3.8 17.1 11.3 23 1.3 1.1 2.1 3.3 2.3 5 0.2 3.2-0.5 6.6-0.2 9.8 0.9 10.6 6.1 19.4 12.5 27.6 2.3 3 2.7 5.6 1.2 8.9-2.2 4.8-4.5 9.7-6.1 14.7-0.7 2.5-0.1 5.3-0.1 8q0.6 0 1.1 0c1-2.9 1.8-5.9 3.1-8.7 1-2.4 3.1-3.3 5.1-1.1 3.9 4.4 7 9.3 6.9 15.5 0 1.1 0.1 2.1 0.1 3.4 3.4-0.5 4.2-2.8 4.9-5 2.8-9 2.4-17.8-1.7-26.2-1.5-3.2-1.6-6.2-1.3-9.5 0.7-10.9 1.6-21.7 1.7-32.6 0.1-13.6-4.3-25.8-13.8-35.9-1.2-1.3-1.7-3.8-1.6-5.8 0.4-13.9-1.6-27.2-8.6-39.4-5.3-9.2-11.9-11.3-21.8-7.9-18 6.3-34.7 15.2-50.1 26.3-10.5 7.6-20.4 16-30.6 24zm-17.3-108.6v8.5c3.4-0.4 5.5-1.9 5.3-5.3-0.3-3.3-2.8-3-5.3-3.2z"/>
					</g>
					<g id="g34">
						<path id="path36" class="s3" d="m436.9 315.6c1.5 2.2 3 3.4 2.9 4.5-0.1 1.1-1.8 2.8-2.9 2.8-1 0.1-2.7-1.7-2.8-2.8-0.2-1 1.3-2.3 2.8-4.5z"/>
					</g>
					<g id="g38">
						<path id="path40" class="s3" d="m327.1 474.4c-1.6-0.2-4.1-0.5-6.6-0.9-2.1-0.3-3.8-1.2-3.3-3.7 0.5-2.5 2.3-2.5 4.5-2 2.1 0.4 4.4 0.4 6.7 0.6 0-4.4-0.1-8.4 0-12.4 0-0.8 0.3-1.7 0.6-2.6 0.9-2.1 1.4-5.2 4.7-3.9 3.2 1.1 1.2 3.6 0.9 5.8-0.4 3.2-0.4 6.4-0.4 9.7 0 3 0.7 6 0.3 9-0.7 4.5-1.3 8.9 0.7 13.4 0.4 0.9-1 2.6-1.6 3.9-1.2-0.6-3.3-1-3.5-1.8-1.2-4.8-2-9.7-3-15.1z"/>
					</g>
					<g id="g42">
						<path id="path44" class="s3" d="m348.4 442.5c2.3 1.1 4.3 1.7 6.1 2.9 7.3 4.8 11.7 11.9 14.4 20.1 0.4 1-1 2.6-1.5 3.9-1.2-0.5-2.9-0.8-3.6-1.8-1-1.3-1.3-3.2-2.1-4.8-3.1-6.3-7.3-11.4-13.8-14.4-1-0.4-1.9-2.2-2-3.4-0.1-0.7 1.5-1.5 2.5-2.5z"/>
					</g>
					<g id="g46">
						<path id="path48" class="s3" d="m346.1 469c0.8-0.1 2.4-0.8 4-0.6 1.3 0.1 2.6 1.2 3.9 1.8-0.8 1.2-1.4 3.2-2.4 3.5-2.6 0.7-5.5 1-8.1 0.7-1.2-0.2-2.2-2-3.4-3.1 1.4-0.8 2.7-1.7 4-2.4 0.3-0.2 0.8 0 2 0.1z"/>
					</g>
					<g id="g50">
						<path id="path52" class="s3" d="m369.4 423.6c-2-1.9-4.1-3-4.2-4.3-0.4-2.8 2-2.8 4.2-2.9 2.1 0 4.5 0.2 4.2 2.8-0.1 1.4-2.2 2.5-4.2 4.4z"/>
					</g>
					<g id="g54">
						<path id="path56" class="s3" d="m348.5 318c-0.6-0.6-2.2-1.5-2.2-2.5-0.1-1.1 1-2.7 2.1-3.3 1.3-0.7 3.2-1.1 4.7-0.9 1.1 0.2 2.6 1.4 3 2.5 0.2 0.7-1 2.5-2 3-1.3 0.7-3.1 0.7-5.6 1.2z"/>
					</g>
					<g id="g58">
						<path id="path60" class="s3" d="m277.6 200.6c-0.1 0-1 0.1-1.4 0.1-10.1 1.8-15.9 1.9-26.2 2.4-11.7 0.5-33.7 0.3-62.6 0.4l-40.1-0.9c0 0 3.2 14.9 6.6 17 4.4 2.7 9.2 3.5 14.3 3.6q14.7 0 29.4 0.1c2.9 0 3 0.1 3 3q-0.1 19.9-0.2 39.9 0.1 0 0.1 0c2.3-0.4 4.8-0.1 7.2-0.1 2.8 0 5.5 0.1 8.3 0q4.3-0.1 4.2 4.1c-0.1 2.6-0.6 4.7-4.1 4.4-2.9-0.3-5.8-0.3-8.7 0.1-1.3 0.2-3.4 1.5-3.6 2.6-0.5 2.4 1.6 3 3.7 3 2.9 0.1 5.8 0.2 8.7 0 3.2-0.2 3.9 1.5 4 4.1 0 2.6-1.3 3.6-3.8 3.4-2.9-0.2-5.8-0.1-8.7 0-2 0-4 0.3-4.1 2.9 0 2.5 1.9 3 4 3 3-0.1 6.1 0.1 9.1-0.1 2.5-0.2 3.4 1 3.5 3.2 0 2.2-0.5 4.3-3.2 4.4-5.5 0-11.1-0.1-16.7-0.4 0 5.5 0.2 11.1 1.3 16.6 0.8 4 2.3 7.5 4 11.5 1.5 3.3 6 14.8 7 16.2q0 0 0 0.1c1.1-3.7 2-7.2 3.5-10.4 4.9-10.7 6.4-21.9 6.4-33.6-0.1-14.3-0.2-14.6-0.5-29-0.2-5.9-0.4-11.9-0.2-17.8 0.5-9.9-0.2-19.7 0-29.5 0-0.7 0-1.3 0.4-1.9 0.6-0.4 1.3-0.2 1.9-0.2q10.5 0.1 20.9-0.2c9.5-0.3 14.2-1.6 22.6-6.4 3.7-2 11.3-14 10-15.6z"/>
					</g>
				</g>
			</g>
		</g>
	</g>
</svg>